<svg width="14" height="14" viewBox="0 0 14 14" fill="none" xmlns="http://www.w3.org/2000/svg">
<g clip-path="url(#clip0_4386_16416)">
<path d="M9.67402 8.91581C10.4682 7.83212 10.8239 6.48854 10.6699 5.15386C10.516 3.81918 9.86382 2.59183 8.84383 1.71737C7.82384 0.84291 6.51128 0.38582 5.16875 0.43755C3.82622 0.48928 2.55273 1.04601 1.60305 1.99637C0.653372 2.94673 0.097549 4.22062 0.0467796 5.56319C-0.00398974 6.90575 0.454039 8.21798 1.32923 9.23735C2.20442 10.2567 3.43223 10.908 4.76702 11.061C6.10181 11.214 7.44514 10.8573 8.52826 10.0624H8.52744C8.55204 10.0952 8.57829 10.1264 8.60781 10.1567L11.7654 13.3143C11.9192 13.4682 12.1278 13.5547 12.3454 13.5548C12.563 13.5549 12.7716 13.4685 12.9255 13.3147C13.0794 13.1609 13.1659 12.9523 13.166 12.7348C13.1661 12.5172 13.0797 12.3085 12.926 12.1546L9.76834 8.997C9.73902 8.96732 9.70749 8.94073 9.67402 8.91581ZM9.88562 5.76311C9.88562 6.35549 9.76895 6.94207 9.54225 7.48935C9.31556 8.03664 8.98329 8.53391 8.56442 8.95279C8.14554 9.37166 7.64827 9.70393 7.10098 9.93062C6.5537 10.1573 5.96712 10.274 5.37474 10.274C4.78237 10.274 4.19579 10.1573 3.64851 9.93062C3.10122 9.70393 2.60394 9.37166 2.18507 8.95279C1.7662 8.53391 1.43393 8.03664 1.20724 7.48935C0.980542 6.94207 0.863865 6.35549 0.863865 5.76311C0.863865 4.56675 1.33912 3.41939 2.18507 2.57344C3.03102 1.72749 4.17838 1.25223 5.37474 1.25223C6.5711 1.25223 7.71846 1.72749 8.56442 2.57344C9.41037 3.41939 9.88562 4.56675 9.88562 5.76311Z" fill="#1E1E1E"/>
</g>
<defs>
<clipPath id="clip0_4386_16416">
<rect width="13.1226" height="13.1226" fill="white" transform="translate(0.0429688 0.433594)"/>
</clipPath>
</defs>
</svg>
