<svg width="29" height="32" viewBox="0 0 29 32" fill="none" xmlns="http://www.w3.org/2000/svg">
<path d="M2 7.55556L6.16667 2H22.8333L27 7.55556M2 7.55556V27C2 27.7367 2.29266 28.4433 2.81359 28.9642C3.33453 29.4851 4.04107 29.7778 4.77778 29.7778H24.2222C24.9589 29.7778 25.6655 29.4851 26.1864 28.9642C26.7073 28.4433 27 27.7367 27 27V7.55556M2 7.55556H27M20.0556 13.1111C20.0556 14.5845 19.4702 15.9976 18.4284 17.0395C17.3865 18.0814 15.9734 18.6667 14.5 18.6667C13.0266 18.6667 11.6135 18.0814 10.5716 17.0395C9.52976 15.9976 8.94444 14.5845 8.94444 13.1111" stroke="#FFA629" stroke-width="3.5" stroke-linecap="round" stroke-linejoin="round"/>
</svg>
