<svg width="34" height="29" viewBox="0 0 34 29" fill="none" xmlns="http://www.w3.org/2000/svg">
<path d="M2.29492 26.4802V14.5203C2.29492 13.7273 2.5993 12.9668 3.14109 12.4061C3.68288 11.8454 4.41771 11.5303 5.18392 11.5303M5.18392 11.5303H28.2959M5.18392 11.5303V5.5504C5.18392 4.75741 5.48829 3.9969 6.03008 3.43617C6.57188 2.87544 7.3067 2.56042 8.07291 2.56042H25.4069C26.1731 2.56042 26.9079 2.87544 27.4497 3.43617C27.9915 3.9969 28.2959 4.75741 28.2959 5.5504V11.5303M28.2959 11.5303C29.0621 11.5303 29.7969 11.8454 30.3387 12.4061C30.8805 12.9668 31.1849 13.7273 31.1849 14.5203V26.4802M16.7399 2.56042V11.5303M2.29492 23.4902H31.1849" stroke="#FFA629" stroke-width="4.5884" stroke-linecap="round" stroke-linejoin="round"/>
</svg>
