<svg width="30" height="31" viewBox="0 0 30 31" fill="none" xmlns="http://www.w3.org/2000/svg">
<mask id="path-1-outside-1_4386_19427" maskUnits="userSpaceOnUse" x="-0.173828" y="-0.2771" width="30" height="32" fill="black">
<rect fill="white" x="-0.173828" y="-0.2771" width="30" height="32"/>
<path d="M18.0438 26.3817V17.262C18.0438 16.9596 17.9277 16.6697 17.7212 16.4559C17.5146 16.2421 17.2345 16.122 16.9423 16.122H12.5365C12.2443 16.122 11.9642 16.2421 11.7576 16.4559C11.551 16.6697 11.435 16.9596 11.435 17.262V26.3817"/>
<path d="M4.82617 13.842C4.8261 13.5104 4.89593 13.1827 5.03081 12.8819C5.16569 12.581 5.36236 12.3143 5.60711 12.1002L13.3174 5.26151C13.715 4.91372 14.2188 4.7229 14.7394 4.7229C15.26 4.7229 15.7638 4.91372 16.1614 5.26151L23.8717 12.1002C24.1164 12.3143 24.3131 12.581 24.448 12.8819C24.5829 13.1827 24.6527 13.5104 24.6526 13.842V24.1018C24.6526 24.7064 24.4205 25.2863 24.0074 25.7139C23.5943 26.1415 23.0339 26.3817 22.4497 26.3817H7.02911C6.44485 26.3817 5.88453 26.1415 5.4714 25.7139C5.05827 25.2863 4.82617 24.7064 4.82617 24.1018V13.842Z"/>
</mask>
<path d="M13.512 26.3817C13.512 28.8845 15.541 30.9135 18.0438 30.9135C20.5466 30.9135 22.5756 28.8845 22.5756 26.3817H13.512ZM6.90323 26.3817C6.90323 28.8845 8.93216 30.9135 11.435 30.9135C13.9378 30.9135 15.9667 28.8845 15.9667 26.3817H6.90323ZM4.82617 13.842H9.35793V13.841L4.82617 13.842ZM5.60711 12.1002L8.59072 15.5112C8.59856 15.5043 8.60639 15.4974 8.61418 15.4905L5.60711 12.1002ZM13.3174 5.26151L10.3338 1.85051C10.3259 1.85737 10.3181 1.86426 10.3103 1.87118L13.3174 5.26151ZM14.7394 4.7229V0.191143V4.7229ZM16.1614 5.26151L19.1685 1.87118C19.1607 1.86426 19.1528 1.85737 19.145 1.85051L16.1614 5.26151ZM23.8717 12.1002L20.8646 15.4905C20.8724 15.4974 20.8802 15.5043 20.8881 15.5112L23.8717 12.1002ZM24.6526 13.842L20.1209 13.841V13.842H24.6526ZM4.82617 24.1018H0.294415H4.82617ZM22.5756 26.3817V17.262H13.512V26.3817H22.5756ZM22.5756 17.262C22.5756 15.807 22.0186 14.3816 20.9802 13.3069L14.4622 19.6048C13.8369 18.9577 13.512 18.1122 13.512 17.262H22.5756ZM20.9802 13.3069C19.9367 12.227 18.4876 11.5902 16.9423 11.5902V20.6537C15.9813 20.6537 15.0925 20.2572 14.4622 19.6048L20.9802 13.3069ZM16.9423 11.5902H12.5365V20.6537H16.9423V11.5902ZM12.5365 11.5902C10.9912 11.5902 9.54209 12.227 8.4986 13.3069L15.0166 19.6048C14.3862 20.2572 13.4974 20.6537 12.5365 20.6537V11.5902ZM8.4986 13.3069C7.46023 14.3816 6.90323 15.807 6.90323 17.262H15.9667C15.9667 18.1122 15.6418 18.9577 15.0166 19.6048L8.4986 13.3069ZM6.90323 17.262V26.3817H15.9667V17.262H6.90323ZM9.35793 13.841C9.358 14.1448 9.29428 14.4497 9.16599 14.7358L0.895632 11.0279C0.497581 11.9158 0.294191 12.876 0.294415 13.8431L9.35793 13.841ZM9.16599 14.7358C9.03753 15.0223 8.84456 15.2891 8.59072 15.5112L2.62351 8.68918C1.88017 9.33938 1.29385 10.1397 0.895632 11.0279L9.16599 14.7358ZM8.61418 15.4905L16.3245 8.65184L10.3103 1.87118L2.60004 8.70985L8.61418 15.4905ZM16.301 8.67251C15.886 9.03554 15.3339 9.25466 14.7394 9.25466V0.191143C13.1037 0.191143 11.5441 0.79189 10.3338 1.85051L16.301 8.67251ZM14.7394 9.25466C14.1449 9.25466 13.5928 9.03554 13.1778 8.67251L19.145 1.85051C17.9347 0.79189 16.3751 0.191143 14.7394 0.191143V9.25466ZM13.1543 8.65184L20.8646 15.4905L26.8787 8.70984L19.1685 1.87118L13.1543 8.65184ZM20.8881 15.5112C20.6342 15.2891 20.4412 15.0223 20.3128 14.7358L28.5832 11.0279C28.1849 10.1397 27.5986 9.33938 26.8553 8.68918L20.8881 15.5112ZM20.3128 14.7358C20.1845 14.4497 20.1208 14.1448 20.1209 13.841L29.1844 13.8431C29.1846 12.876 28.9812 11.9158 28.5832 11.0279L20.3128 14.7358ZM20.1209 13.842V24.1018H29.1844V13.842H20.1209ZM20.1209 24.1018C20.1209 23.5538 20.3297 22.9983 20.7484 22.565L27.2664 28.8628C28.5113 27.5744 29.1844 25.8591 29.1844 24.1018H20.1209ZM20.7484 22.565C21.1722 22.1264 21.7808 21.8499 22.4497 21.8499V30.9135C24.287 30.9135 26.0163 30.1566 27.2664 28.8628L20.7484 22.565ZM22.4497 21.8499H7.02911V30.9135H22.4497V21.8499ZM7.02911 21.8499C7.69797 21.8499 8.3066 22.1264 8.73039 22.565L2.2124 28.8628C3.46246 30.1566 5.19174 30.9135 7.02911 30.9135V21.8499ZM8.73039 22.565C9.14907 22.9983 9.35793 23.5538 9.35793 24.1018H0.294415C0.294415 25.8591 0.967462 27.5744 2.2124 28.8628L8.73039 22.565ZM9.35793 24.1018V13.842H0.294415V24.1018H9.35793Z" fill="#FFA629" mask="url(#path-1-outside-1_4386_19427)"/>
</svg>
