<svg width="36" height="36" viewBox="0 0 36 36" fill="none" xmlns="http://www.w3.org/2000/svg">
<path d="M24.4 11.6H14.8C13.9513 11.6 13.1374 11.9371 12.5373 12.5373C11.9371 13.1374 11.6 13.9513 11.6 14.8C11.6 15.6487 11.9371 16.4626 12.5373 17.0627C13.1374 17.6629 13.9513 18 14.8 18H21.2C22.0487 18 22.8626 18.3371 23.4627 18.9373C24.0629 19.5374 24.4 20.3513 24.4 21.2C24.4 22.0487 24.0629 22.8626 23.4627 23.4627C22.8626 24.0629 22.0487 24.4 21.2 24.4H11.6M18 27.6V8.4M34 18C34 26.8366 26.8366 34 18 34C9.16344 34 2 26.8366 2 18C2 9.16344 9.16344 2 18 2C26.8366 2 34 9.16344 34 18Z" stroke="#FFA629" stroke-width="3.2" stroke-linecap="round" stroke-linejoin="round"/>
</svg>
