<svg width="29" height="29" viewBox="0 0 29 29" fill="none" xmlns="http://www.w3.org/2000/svg">
<path d="M18.1482 5.52061C17.7306 5.52061 17.3188 5.42003 16.9452 5.22684L11.2772 2.29377C10.9036 2.10058 10.4917 2 10.0741 2M18.1482 5.52061C18.5658 5.52061 18.9777 5.42003 19.3513 5.22684L24.2752 2.67816C24.4805 2.57198 24.7086 2.52191 24.9379 2.53272C25.1672 2.54352 25.39 2.61484 25.5851 2.7399C25.7803 2.86496 25.9412 3.03959 26.0528 3.2472C26.1643 3.45481 26.2227 3.6885 26.2224 3.92604V21.7027C26.2222 21.9613 26.1525 22.2147 26.0211 22.4346C25.8897 22.6545 25.7017 22.8322 25.4782 22.9478L19.3513 26.1191C18.9777 26.3122 18.5658 26.4128 18.1482 26.4128M18.1482 5.52061V26.4128M18.1482 26.4128C17.7306 26.4128 17.3188 26.3122 16.9452 26.1191L11.2772 23.186C10.9036 22.9928 10.4917 22.8922 10.0741 22.8922C9.65652 22.8922 9.24464 22.9928 8.87108 23.186L3.94721 25.7347C3.7418 25.8409 3.51353 25.891 3.28413 25.8801C3.05474 25.8692 2.83185 25.7978 2.63667 25.6726C2.44149 25.5473 2.28053 25.3725 2.16909 25.1647C2.05764 24.9569 1.99944 24.7231 2 24.4854V6.71009C2.00014 6.45151 2.06982 6.19808 2.20125 5.97818C2.33269 5.75827 2.52068 5.58058 2.74417 5.465L8.87108 2.29377C9.24464 2.10058 9.65652 2 10.0741 2M10.0741 2V22.8907" stroke="#FFA629" stroke-width="3.69896" stroke-linecap="round" stroke-linejoin="round"/>
</svg>
