<svg width="26" height="29" viewBox="0 0 26 29" fill="none" xmlns="http://www.w3.org/2000/svg">
<path d="M2 13.25H5.75C6.41304 13.25 7.04893 13.5134 7.51777 13.9822C7.98661 14.4511 8.25 15.087 8.25 15.75V19.5C8.25 20.163 7.98661 20.7989 7.51777 21.2678C7.04893 21.7366 6.41304 22 5.75 22H4.5C3.83696 22 3.20107 21.7366 2.73223 21.2678C2.26339 20.7989 2 20.163 2 19.5V13.25ZM2 13.25C2 11.7726 2.29099 10.3097 2.85636 8.94481C3.42172 7.5799 4.25039 6.33971 5.29505 5.29505C6.33971 4.25039 7.5799 3.42172 8.94481 2.85636C10.3097 2.29099 11.7726 2 13.25 2C14.7274 2 16.1903 2.29099 17.5552 2.85636C18.9201 3.42172 20.1603 4.25039 21.205 5.29505C22.2496 6.33971 23.0783 7.5799 23.6436 8.94481C24.209 10.3097 24.5 11.7726 24.5 13.25M24.5 13.25V19.5M24.5 13.25H20.75C20.087 13.25 19.4511 13.5134 18.9822 13.9822C18.5134 14.4511 18.25 15.087 18.25 15.75V19.5C18.25 20.163 18.5134 20.7989 18.9822 21.2678C19.4511 21.7366 20.087 22 20.75 22H22C22.663 22 23.2989 21.7366 23.7678 21.2678C24.2366 20.7989 24.5 20.163 24.5 19.5M24.5 19.5V22C24.5 23.3261 23.9732 24.5979 23.0355 25.5355C22.0979 26.4732 20.8261 27 19.5 27H13.25" stroke="#FFA629" stroke-width="3.01724" stroke-linecap="round" stroke-linejoin="round"/>
</svg>
