<svg width="12" height="19" viewBox="0 0 12 19" fill="none" xmlns="http://www.w3.org/2000/svg">
<path fill-rule="evenodd" clip-rule="evenodd" d="M1.07731 5.55507C1.07731 2.979 3.31771 0.890625 6.08146 0.890625C8.84521 0.890625 11.0856 2.979 11.0856 5.55507C11.0856 8.1312 8.84521 10.2197 6.08146 10.2197C3.31771 10.2197 1.07731 8.1312 1.07731 5.55507ZM4.01286 5.55513C4.01286 6.62002 4.93902 7.48338 6.08146 7.48338C7.2239 7.48338 8.15006 6.62002 8.15006 5.55513C8.15006 4.49025 7.2239 3.62696 6.08146 3.62696C4.93902 3.62696 4.01286 4.49025 4.01286 5.55513Z" fill="#0C1518"/>
<path d="M7.84814 13.9312C9.85151 13.5508 11.052 12.6665 11.1155 12.619C11.7018 12.1808 11.7959 11.3826 11.3258 10.8361C10.8557 10.2897 9.99946 10.2019 9.41309 10.64C9.40071 10.6494 8.12027 11.5649 6.0135 11.5663C3.9068 11.5649 2.5993 10.6494 2.58691 10.64C2.00054 10.2019 1.14427 10.2897 0.674205 10.8361C0.204068 11.3826 0.298238 12.1808 0.884459 12.619C0.948839 12.6671 2.19891 13.5745 4.25842 13.946L1.38811 16.742C0.866485 17.2463 0.882168 18.0492 1.42313 18.5354C1.68717 18.7727 2.02747 18.8906 2.36749 18.8906C2.72397 18.8906 3.0801 18.7608 3.34707 18.5027L6.01357 15.855L8.9494 18.5198C9.48134 19.0148 10.3427 19.014 10.8736 18.5184C11.4046 18.0227 11.4039 17.2197 10.8721 16.7248L7.84814 13.9312Z" fill="#0C1518"/>
</svg>
