<svg width="20" height="16" viewBox="0 0 20 16" fill="none" xmlns="http://www.w3.org/2000/svg">
<path d="M2.03867 6.84809C6.99439 4.73126 10.299 3.33571 11.9524 2.66145C16.6734 0.73631 17.6544 0.401892 18.2938 0.390732C18.4344 0.388421 18.7488 0.42259 18.9525 0.584621C19.1245 0.721436 19.1718 0.906255 19.1944 1.03597C19.2171 1.16569 19.2453 1.46118 19.2229 1.69208C18.967 4.32745 17.8601 10.7228 17.2969 13.6745C17.0586 14.9234 16.5894 15.3422 16.1351 15.3832C15.1479 15.4723 14.3983 14.7436 13.4421 14.1291C11.946 13.1675 11.1007 12.569 9.64841 11.6307C7.97002 10.5463 9.05805 9.9503 10.0146 8.97629C10.2649 8.72139 14.6145 4.84258 14.6987 4.49071C14.7092 4.44671 14.719 4.28267 14.6196 4.19605C14.5202 4.10943 14.3735 4.13906 14.2676 4.16261C14.1176 4.196 11.7274 5.74487 7.0971 8.80921C6.41866 9.26596 5.80414 9.4885 5.25356 9.47684C4.64659 9.46398 3.47902 9.14037 2.61105 8.86375C1.54645 8.52447 0.700325 8.34509 0.774004 7.76889C0.81238 7.46877 1.23393 7.16183 2.03867 6.84809Z" fill="#0C1518"/>
</svg>
