<svg width="18" height="19" viewBox="0 0 18 19" fill="none" xmlns="http://www.w3.org/2000/svg">
<path d="M9 2.51713C11.3855 2.51713 11.7108 2.51713 12.6867 2.51713C13.5542 2.51713 13.988 2.734 14.3133 2.84243C14.747 3.0593 15.0723 3.16773 15.3976 3.49304C15.7229 3.81834 15.9398 4.14364 16.0482 4.57737C16.1566 4.90267 16.2651 5.33641 16.3735 6.20388C16.3735 7.17978 16.3735 7.39665 16.3735 9.89063C16.3735 12.3846 16.3735 12.6015 16.3735 13.5774C16.3735 14.4448 16.1566 14.8786 16.0482 15.2039C15.8313 15.6376 15.7229 15.9629 15.3976 16.2882C15.0723 16.6135 14.747 16.8304 14.3133 16.9388C13.988 17.0473 13.5542 17.1557 12.6867 17.2641C11.7108 17.2641 11.494 17.2641 9 17.2641C6.50602 17.2641 6.28916 17.2641 5.31325 17.2641C4.44578 17.2641 4.01205 17.0473 3.68675 16.9388C3.25301 16.722 2.92771 16.6135 2.60241 16.2882C2.27711 15.9629 2.06024 15.6376 1.95181 15.2039C1.84337 14.8786 1.73494 14.4448 1.62651 13.5774C1.62651 12.6015 1.62651 12.3846 1.62651 9.89063C1.62651 7.39665 1.62651 7.17978 1.62651 6.20388C1.62651 5.33641 1.84337 4.90267 1.95181 4.57737C2.16868 4.14364 2.27711 3.81834 2.60241 3.49304C2.92771 3.16773 3.25301 2.95087 3.68675 2.84243C4.01205 2.734 4.44578 2.62556 5.31325 2.51713C6.28916 2.51713 6.61446 2.51713 9 2.51713ZM9 0.890625C6.50602 0.890625 6.28916 0.890625 5.31325 0.890625C4.33735 0.890625 3.68675 1.10749 3.14458 1.32436C2.60241 1.54123 2.06024 1.86653 1.51807 2.4087C0.975904 2.95087 0.759037 3.3846 0.433736 4.0352C0.216868 4.57737 0.108434 5.22798 0 6.20388C0 7.17978 0 7.50508 0 9.89063C0 12.3846 0 12.6015 0 13.5774C0 14.5533 0.216868 15.2039 0.433736 15.746C0.650603 16.2882 0.975904 16.8304 1.51807 17.3726C2.06024 17.9147 2.49398 18.1316 3.14458 18.4569C3.68675 18.6738 4.33735 18.7822 5.31325 18.8906C6.28916 18.8906 6.61446 18.8906 9 18.8906C11.3855 18.8906 11.7108 18.8906 12.6867 18.8906C13.6627 18.8906 14.3133 18.6738 14.8554 18.4569C15.3976 18.24 15.9398 17.9147 16.4819 17.3726C17.0241 16.8304 17.241 16.3967 17.5663 15.746C17.7831 15.2039 17.8916 14.5533 18 13.5774C18 12.6015 18 12.2762 18 9.89063C18 7.50508 18 7.17978 18 6.20388C18 5.22798 17.7831 4.57737 17.5663 4.0352C17.3494 3.49304 17.0241 2.95087 16.4819 2.4087C15.9398 1.86653 15.506 1.64966 14.8554 1.32436C14.3133 1.10749 13.6627 0.999059 12.6867 0.890625C11.7108 0.890625 11.494 0.890625 9 0.890625Z" fill="#0C1518"/>
<path d="M9 5.22797C6.39759 5.22797 4.33735 7.28822 4.33735 9.89063C4.33735 12.493 6.39759 14.5533 9 14.5533C11.6024 14.5533 13.6627 12.493 13.6627 9.89063C13.6627 7.28822 11.6024 5.22797 9 5.22797ZM9 12.9268C7.3735 12.9268 5.96386 11.6256 5.96386 9.89063C5.96386 8.26412 7.26506 6.85448 9 6.85448C10.6265 6.85448 12.0361 8.15569 12.0361 9.89063C12.0361 11.5171 10.6265 12.9268 9 12.9268Z" fill="#0C1518"/>
<path d="M13.7711 6.20388C14.3699 6.20388 14.8554 5.7184 14.8554 5.11954C14.8554 4.52068 14.3699 4.0352 13.7711 4.0352C13.1722 4.0352 12.6867 4.52068 12.6867 5.11954C12.6867 5.7184 13.1722 6.20388 13.7711 6.20388Z" fill="#0C1518"/>
</svg>
